<svg xmlns="http://www.w3.org/2000/svg" viewBox="0 0 340 80" fill="none">
  <defs>
    <linearGradient id="tealGrad" x1="0" y1="0" x2="1" y2="1">
      <stop offset="0%" stop-color="#00AEC7"/>
      <stop offset="100%" stop-color="#0098AE"/>
    </linearGradient>
    <linearGradient id="shieldGrad" x1="0" y1="0" x2="0" y2="1">
      <stop offset="0%" stop-color="#1B2A4A"/>
      <stop offset="100%" stop-color="#243B5E"/>
    </linearGradient>
    <linearGradient id="goldAccent" x1="0" y1="0" x2="1" y2="1">
      <stop offset="0%" stop-color="#D4A843"/>
      <stop offset="100%" stop-color="#E0B959"/>
    </linearGradient>
  </defs>
  <!-- Shield icon -->
  <g transform="translate(28, 40)">
    <path d="M-20-22l-16 14v22c0 14 8 26 16 32 8-6 16-18 16-32V-8l-16-14z" fill="url(#shieldGrad)"/>
    <path d="M-14-16l-12 11v17c0 10 6 19 12 24 6-5 12-14 12-24V-5l-12-11z" fill="url(#tealGrad)" opacity="0.35"/>
    <!-- Teal checkmark -->
    <path d="M-10-2l5 6 12-14" stroke="url(#tealGrad)" stroke-width="3.5" stroke-linecap="round" stroke-linejoin="round"/>
    <!-- Gold star -->
    <polygon points="0,-17 1.5,-13 6,-13 2.5,-10 4,-5.5 0,-8 -4,-5.5 -2.5,-10 -6,-13 -1.5,-13" fill="url(#goldAccent)"/>
  </g>
  <!-- Text: Havelo -->
  <text x="60" y="42" font-family="'Montserrat', 'Inter', system-ui, sans-serif" font-size="42" font-weight="800" fill="#1B2A4A" letter-spacing="-1">Havelo</text>
  <!-- Tagline -->
  <text x="62" y="62" font-family="'Montserrat', 'Inter', system-ui, sans-serif" font-size="10" font-weight="500" fill="#64748B" letter-spacing="1.5">Real coverage, made simple</text>
</svg>