<svg xmlns="http://www.w3.org/2000/svg" viewBox="0 0 210 64" fill="none">
  <defs>
    <linearGradient id="badge3Grad" x1="0" y1="0" x2="1" y2="1">
      <stop offset="0%" stop-color="#5b21b6"/>
      <stop offset="100%" stop-color="#7c3aed"/>
    </linearGradient>
    <linearGradient id="goldAccent3" x1="0" y1="0" x2="1" y2="1">
      <stop offset="0%" stop-color="#fbbf24"/>
      <stop offset="100%" stop-color="#f59e0b"/>
    </linearGradient>
    <filter id="badgeShadow3" x="-10%" y="-20%" width="120%" height="140%">
      <feDropShadow dx="0" dy="3" stdDeviation="5" flood-color="rgba(124,58,237,0.2)"/>
    </filter>
  </defs>
  <rect x="0" y="7" width="210" height="50" rx="25" fill="url(#badge3Grad)" filter="url(#badgeShadow3)"/>
  <rect x="18" y="20" width="3" height="24" rx="1.5" fill="url(#goldAccent3)"/>
  <!-- Handshake / people icon -->
  <g transform="translate(32, 32)">
    <circle cx="-4" cy="-4" r="3.5" fill="white" opacity="0.9"/>
    <circle cx="4" cy="-4" r="3.5" fill="white" opacity="0.9"/>
    <path d="M-8 3c-1.5 0-3 1.5-3 3v2h22v-2c0-1.5-1.5-3-3-3" fill="white" opacity="0.9"/>
    <!-- Small gold star -->
    <polygon points="0,-5 0.5,-3.5 2,-3.5 1,-2.2 1.5,-0.5 0,-1.5 -1.5,-0.5 -1,-2.2 -2,-3.5 -0.5,-3.5" fill="url(#goldAccent3)"/>
  </g>
  <text x="52" y="38" font-family="'Inter', 'Segoe UI', system-ui, sans-serif" font-size="12" font-weight="700" fill="white" letter-spacing="0.5">Trusted by Agents</text>
</svg>