<svg xmlns="http://www.w3.org/2000/svg" viewBox="0 0 210 64" fill="none">
  <defs>
    <linearGradient id="badge1Grad" x1="0" y1="0" x2="1" y2="1">
      <stop offset="0%" stop-color="#1a2a4a"/>
      <stop offset="100%" stop-color="#1e3a5f"/>
    </linearGradient>
    <linearGradient id="goldAccent" x1="0" y1="0" x2="1" y2="1">
      <stop offset="0%" stop-color="#fbbf24"/>
      <stop offset="100%" stop-color="#f59e0b"/>
    </linearGradient>
    <filter id="badgeShadow1" x="-10%" y="-20%" width="120%" height="140%">
      <feDropShadow dx="0" dy="3" stdDeviation="5" flood-color="rgba(30,58,95,0.2)"/>
    </filter>
  </defs>
  <rect x="0" y="7" width="210" height="50" rx="25" fill="url(#badge1Grad)" filter="url(#badgeShadow1)"/>
  <!-- Gold left accent bar -->
  <rect x="18" y="20" width="3" height="24" rx="1.5" fill="url(#goldAccent)"/>
  <!-- Shield icon -->
  <g transform="translate(32, 32)">
    <path d="M-6-8l6 8 10-10" stroke="url(#goldAccent)" stroke-width="2" stroke-linecap="round" stroke-linejoin="round" fill="none"/>
    <path d="M-8 2v8c0 5 4 9 8 10 4-1 8-5 8-10v-8L0-8-8 2z" stroke="url(#goldAccent)" stroke-width="1.2" fill="none" opacity="0.5"/>
  </g>
  <!-- Star -->
  <g transform="translate(178, 32)">
    <polygon points="0,-9 2,-3 8,-3 3,2 5,8 0,4 -5,8 -3,2 -8,-3 -2,-3" fill="url(#goldAccent)"/>
  </g>
  <text x="52" y="38" font-family="'Inter', 'Segoe UI', system-ui, sans-serif" font-size="12" font-weight="700" fill="white" letter-spacing="0.5">Licensed &amp; Rated A+</text>
</svg>